<svg width="19" height="18" viewBox="0 0 19 18" fill="none" xmlns="http://www.w3.org/2000/svg">
<path d="M2.64287 17H16.3572C16.8118 17 17.2479 16.8314 17.5693 16.5314C17.8908 16.2313 18.0714 15.8243 18.0714 15.4V2.6C18.0714 2.17565 17.8908 1.76869 17.5693 1.46863C17.2479 1.16857 16.8118 1 16.3572 1H6.07145C5.61679 1 5.18075 1.16857 4.85926 1.46863C4.53777 1.76869 4.35716 2.17565 4.35716 2.6V15.4C4.35716 15.8243 4.17655 16.2313 3.85506 16.5314C3.53357 16.8314 3.09753 17 2.64287 17ZM2.64287 17C2.18822 17 1.75218 16.8314 1.43069 16.5314C1.1092 16.2313 0.928589 15.8243 0.928589 15.4V8.2C0.928589 7.32 1.70002 6.6 2.64287 6.6H4.35716" stroke="#F5FFF3" stroke-width="0.8" stroke-linecap="round" stroke-linejoin="round"/>
<path d="M14.6428 10.6H7.78571" stroke="#F5FFF3" stroke-linecap="round" stroke-linejoin="round"/>
<path d="M12.0714 13.8H7.78571" stroke="#F5FFF3" stroke-linecap="round" stroke-linejoin="round"/>
<path d="M7.78571 4.20001H14.6428V7.40001H7.78571V4.20001Z" stroke="#F5FFF3" stroke-linecap="round" stroke-linejoin="round"/>
</svg>
