<svg width="22" height="17" viewBox="0 0 22 17" fill="none" xmlns="http://www.w3.org/2000/svg">
<path d="M1.75001 13.4999C1.05143 10.2032 1.05143 6.79667 1.75001 3.49994C1.8418 3.16515 2.01914 2.86001 2.26461 2.61454C2.51008 2.36908 2.81522 2.19173 3.15001 2.09994C8.51346 1.2114 13.9866 1.2114 19.35 2.09994C19.6848 2.19173 19.9899 2.36908 20.2354 2.61454C20.4809 2.86001 20.6582 3.16515 20.75 3.49994C21.4486 6.79667 21.4486 10.2032 20.75 13.4999C20.6582 13.8347 20.4809 14.1399 20.2354 14.3853C19.9899 14.6308 19.6848 14.8081 19.35 14.8999C13.9866 15.7887 8.51344 15.7887 3.15001 14.8999C2.81522 14.8081 2.51008 14.6308 2.26461 14.3853C2.01914 14.1399 1.8418 13.8347 1.75001 13.4999Z" stroke="#F5FFF3" stroke-width="1.4" stroke-linecap="round" stroke-linejoin="round"/>
<path d="M9.25 11.4999L14.25 8.49994L9.25 5.49994V11.4999Z" stroke="#F5FFF3" stroke-width="1.4" stroke-linecap="round" stroke-linejoin="round"/>
</svg>
